<?xml version="1.0" encoding="UTF-8"?>
<svg width="171px" height="38px" viewBox="0 0 171 38" version="1.1" xmlns="http://www.w3.org/2000/svg" xmlns:xlink="http://www.w3.org/1999/xlink">
    <title>By homer0</title>
    <g id="Page-1" stroke="none" stroke-width="1" fill="none" fill-rule="evenodd">
        <g id="By-homer0" transform="translate(0.590000, 0.372000)" fill-rule="nonzero">
            <path d="M2.24,2.688 C1.94,2.528 1.805,2.303 1.835,2.013 C1.865,1.723 2.04,1.558 2.36,1.518 C2.4,1.498 2.45,1.473 2.51,1.443 C2.57,1.413 2.63,1.388 2.69,1.368 C2.69,1.308 2.695,1.253 2.705,1.203 C2.715,1.153 2.72,1.098 2.72,1.038 C2.74,0.858 2.805,0.718 2.915,0.618 C3.025,0.518 3.145,0.468 3.275,0.468 C3.405,0.468 3.53,0.508 3.65,0.588 C3.77,0.668 3.85,0.798 3.89,0.978 C4.33,0.838 4.77,0.723 5.21,0.633 C5.65,0.543 5.98,0.478 6.2,0.438 C7.04,0.318 7.885,0.303 8.735,0.393 C9.585,0.483 10.425,0.663 11.255,0.933 C12.085,1.203 12.875,1.553 13.625,1.983 C14.375,2.413 15.06,2.898 15.68,3.438 C16.16,3.858 16.485,4.353 16.655,4.923 C16.825,5.493 16.87,6.078 16.79,6.678 C16.71,7.278 16.52,7.853 16.22,8.403 C15.92,8.953 15.54,9.398 15.08,9.738 C14.46,10.198 13.785,10.638 13.055,11.058 C12.325,11.478 11.56,11.858 10.76,12.198 C11.6,12.158 12.465,12.158 13.355,12.198 C14.245,12.238 15.11,12.338 15.95,12.498 C16.79,12.658 17.57,12.893 18.29,13.203 C19.01,13.513 19.61,13.918 20.09,14.418 C20.35,14.658 20.56,14.943 20.72,15.273 C20.88,15.603 21.04,15.928 21.2,16.248 C21.28,16.368 21.32,16.483 21.32,16.593 C21.32,16.703 21.31,16.828 21.29,16.968 C21.23,17.688 21.115,18.318 20.945,18.858 C20.775,19.398 20.55,19.893 20.27,20.343 C19.99,20.793 19.64,21.228 19.22,21.648 C18.8,22.068 18.3,22.498 17.72,22.938 C16.8,23.658 15.84,24.268 14.84,24.768 C13.84,25.268 12.815,25.698 11.765,26.058 C10.715,26.418 9.635,26.718 8.525,26.958 C7.415,27.198 6.29,27.418 5.15,27.618 L4.55,27.708 L4.28,27.828 C4.06,27.868 3.89,27.848 3.77,27.768 C3.25,27.808 2.71,27.808 2.15,27.768 C1.59,27.728 1.14,27.598 0.8,27.378 C0.74,27.338 0.67,27.258 0.59,27.138 C0.51,27.018 0.43,26.898 0.35,26.778 C0.27,26.638 0.19,26.498 0.11,26.358 C0.05,26.238 0.015,26.138 0.005,26.058 C-0.005,25.978 2.0250468e-13,25.868 0.02,25.728 L0.8,24.168 C0.9,23.988 1.03,23.878 1.19,23.838 C1.35,23.798 1.49,23.808 1.61,23.868 C1.73,23.928 1.825,24.033 1.895,24.183 C1.965,24.333 1.96,24.508 1.88,24.708 L1.4,25.878 L1.58,26.148 C1.8,26.188 2.025,26.208 2.255,26.208 C2.485,26.208 2.72,26.208 2.96,26.208 C2.78,25.508 2.68,24.778 2.66,24.018 C2.64,23.258 2.6,22.558 2.54,21.918 C2.42,20.678 2.33,19.453 2.27,18.243 C2.21,17.033 2.17,15.808 2.15,14.568 C2.07,14.588 1.995,14.603 1.925,14.613 C1.855,14.623 1.77,14.628 1.67,14.628 C1.47,14.668 1.27,14.643 1.07,14.553 C0.87,14.463 0.67,14.398 0.47,14.358 C0.11,14.198 -0.03,13.908 0.05,13.488 L0.29,12.588 C0.47,12.268 0.705,12.153 0.995,12.243 C1.285,12.333 1.43,12.558 1.43,12.918 C1.43,12.958 1.425,13.003 1.415,13.053 C1.405,13.103 1.4,13.148 1.4,13.188 C1.64,13.228 1.89,13.218 2.15,13.158 C2.17,11.418 2.22,9.683 2.3,7.953 C2.38,6.223 2.48,4.478 2.6,2.718 C2.44,2.718 2.32,2.708 2.24,2.688 Z M4.4,19.218 C4.4,19.518 4.39,19.948 4.37,20.508 C4.35,21.068 4.335,21.678 4.325,22.338 C4.315,22.998 4.31,23.663 4.31,24.333 C4.31,25.003 4.34,25.578 4.4,26.058 C5.42,25.918 6.49,25.688 7.61,25.368 C8.73,25.048 9.815,24.663 10.865,24.213 C11.915,23.763 12.91,23.273 13.85,22.743 C14.79,22.213 15.59,21.668 16.25,21.108 C16.51,20.908 16.86,20.598 17.3,20.178 C17.74,19.758 18.125,19.308 18.455,18.828 C18.785,18.348 18.99,17.858 19.07,17.358 C19.15,16.858 18.96,16.408 18.5,16.008 C17.84,15.448 17.075,15.013 16.205,14.703 C15.335,14.393 14.43,14.183 13.49,14.073 C12.55,13.963 11.605,13.923 10.655,13.953 C9.705,13.983 8.81,14.038 7.97,14.118 C7.49,14.158 7.005,14.223 6.515,14.313 C6.025,14.403 5.54,14.508 5.06,14.628 C4.94,14.648 4.82,14.688 4.7,14.748 C4.58,14.808 4.47,14.878 4.37,14.958 C4.37,15.018 4.36,15.058 4.34,15.078 L4.4,19.218 Z M3.98,2.508 C4.08,4.208 4.15,5.883 4.19,7.533 C4.23,9.183 4.27,10.858 4.31,12.558 C5.05,12.298 5.84,11.983 6.68,11.613 C7.52,11.243 8.32,10.873 9.08,10.503 C9.84,10.133 10.53,9.783 11.15,9.453 C11.77,9.123 12.24,8.868 12.56,8.688 C12.86,8.508 13.165,8.273 13.475,7.983 C13.785,7.693 14.03,7.383 14.21,7.053 C14.39,6.723 14.475,6.378 14.465,6.018 C14.455,5.658 14.3,5.308 14,4.968 C13.58,4.488 13.04,4.053 12.38,3.663 C11.72,3.273 11.01,2.948 10.25,2.688 C9.49,2.428 8.725,2.243 7.955,2.133 C7.185,2.023 6.49,1.998 5.87,2.058 C5.59,2.098 5.29,2.163 4.97,2.253 C4.65,2.343 4.32,2.428 3.98,2.508 Z" id="Shape" fill="#EBEBEB"></path>
            <path d="M38.75,12.078 C38.83,12.358 38.79,12.573 38.63,12.723 C38.47,12.873 38.28,12.928 38.06,12.888 C37.76,13.208 37.495,13.563 37.265,13.953 C37.035,14.343 36.82,14.748 36.62,15.168 C36.42,15.588 36.235,16.018 36.065,16.458 C35.895,16.898 35.72,17.318 35.54,17.718 C35.44,17.918 35.32,18.153 35.18,18.423 C35.04,18.693 34.895,18.963 34.745,19.233 C34.595,19.503 34.45,19.753 34.31,19.983 C34.17,20.213 34.07,20.378 34.01,20.478 C33.73,20.938 33.4,21.428 33.02,21.948 C32.64,22.468 32.24,23.018 31.82,23.598 C32,23.938 32.18,24.238 32.36,24.498 L32.48,24.648 C32.54,24.848 32.54,25.023 32.48,25.173 C32.42,25.323 32.33,25.433 32.21,25.503 C32.09,25.573 31.945,25.598 31.775,25.578 C31.605,25.558 31.45,25.478 31.31,25.338 L30.89,24.858 C30.13,25.858 29.345,26.888 28.535,27.948 C27.725,29.008 26.98,30.038 26.3,31.038 C25.62,32.038 25.04,32.978 24.56,33.858 C24.08,34.738 23.78,35.508 23.66,36.168 C23.86,36.208 24,36.298 24.08,36.438 C24.16,36.578 24.185,36.713 24.155,36.843 C24.125,36.973 24.045,37.093 23.915,37.203 C23.785,37.313 23.62,37.358 23.42,37.338 C22.86,37.258 22.535,36.983 22.445,36.513 C22.355,36.043 22.375,35.528 22.505,34.968 C22.635,34.408 22.82,33.873 23.06,33.363 C23.3,32.853 23.46,32.498 23.54,32.298 C24.26,30.618 25.125,29.028 26.135,27.528 C27.145,26.028 28.2,24.548 29.3,23.088 C28.74,22.488 28.195,21.893 27.665,21.303 C27.135,20.713 26.61,20.098 26.09,19.458 C25.57,18.798 25.065,18.128 24.575,17.448 C24.085,16.768 23.59,16.088 23.09,15.408 C22.67,14.828 22.265,14.248 21.875,13.668 C21.485,13.088 21.01,12.568 20.45,12.108 C20.31,11.968 20.24,11.813 20.24,11.643 C20.24,11.473 20.285,11.333 20.375,11.223 C20.465,11.113 20.585,11.048 20.735,11.028 C20.885,11.008 21.05,11.058 21.23,11.178 C21.95,11.578 22.72,12.158 23.54,12.918 C24.36,13.678 25.175,14.528 25.985,15.468 C26.795,16.408 27.585,17.403 28.355,18.453 C29.125,19.503 29.83,20.518 30.47,21.498 C31.05,20.738 31.625,19.968 32.195,19.188 C32.765,18.408 33.31,17.618 33.83,16.818 C33.91,16.678 34.035,16.448 34.205,16.128 C34.375,15.808 34.58,15.443 34.82,15.033 C35.06,14.623 35.325,14.198 35.615,13.758 C35.905,13.318 36.2,12.928 36.5,12.588 C36.8,12.248 37.095,11.973 37.385,11.763 C37.675,11.553 37.95,11.478 38.21,11.538 C38.43,11.578 38.59,11.688 38.69,11.868 L38.75,12.078 Z" id="Path" fill="#EBEBEB"></path>
            <path d="M55.22,11.568 C55.38,11.288 55.585,11.173 55.835,11.223 C56.085,11.273 56.25,11.408 56.33,11.628 C56.41,11.628 56.48,11.623 56.54,11.613 C56.6,11.603 56.67,11.588 56.75,11.568 C56.91,9.808 57.075,8.068 57.245,6.348 C57.415,4.628 57.5,2.908 57.5,1.188 C57.48,1.088 57.465,0.988 57.455,0.888 C57.445,0.788 57.44,0.688 57.44,0.588 C57.48,0.308 57.64,0.118 57.92,0.018 C58.22,-0.042 58.47,0.048 58.67,0.288 C58.85,0.548 58.87,0.798 58.73,1.038 C59.03,2.718 59.19,4.393 59.21,6.063 C59.23,7.733 59.19,9.418 59.09,11.118 C59.81,10.998 60.53,10.903 61.25,10.833 C61.97,10.763 62.69,10.738 63.41,10.758 C65.11,10.798 66.57,11.123 67.79,11.733 C69.01,12.343 70.02,13.158 70.82,14.178 C71.62,15.198 72.21,16.393 72.59,17.763 C72.97,19.133 73.16,20.608 73.16,22.188 C73.16,22.588 73.135,22.983 73.085,23.373 C73.035,23.763 72.98,24.158 72.92,24.558 C72.92,24.538 72.925,24.483 72.935,24.393 C72.945,24.303 72.95,24.213 72.95,24.123 C72.95,24.033 72.95,23.958 72.95,23.898 C72.95,23.838 72.95,23.838 72.95,23.898 C72.93,24.118 72.91,24.338 72.89,24.558 C72.87,24.778 72.86,24.998 72.86,25.218 C72.98,25.278 73.07,25.378 73.13,25.518 C73.19,25.658 73.18,25.828 73.1,26.028 L72.92,26.568 C72.72,26.768 72.48,26.868 72.2,26.868 L72.05,26.808 C71.93,26.748 71.845,26.693 71.795,26.643 C71.745,26.593 71.69,26.508 71.63,26.388 C71.47,25.568 71.39,24.753 71.39,23.943 C71.39,23.133 71.36,22.318 71.3,21.498 L71.3,21.468 C71.08,20.668 70.895,19.858 70.745,19.038 C70.595,18.218 70.3,17.438 69.86,16.698 C69.28,15.738 68.595,14.988 67.805,14.448 C67.015,13.908 66.165,13.508 65.255,13.248 C64.345,12.988 63.385,12.838 62.375,12.798 C61.365,12.758 60.36,12.748 59.36,12.768 C59.2,12.768 59.08,12.778 59,12.798 C58.9,13.938 58.8,15.083 58.7,16.233 C58.6,17.383 58.53,18.528 58.49,19.668 C58.47,19.988 58.455,20.353 58.445,20.763 C58.435,21.173 58.43,21.593 58.43,22.023 C58.43,22.453 58.43,22.868 58.43,23.268 C58.43,23.668 58.44,24.018 58.46,24.318 C58.48,24.658 58.52,25.008 58.58,25.368 C58.64,25.728 58.69,26.078 58.73,26.418 C58.83,26.458 58.92,26.533 59,26.643 C59.08,26.753 59.12,26.898 59.12,27.078 C59.08,27.238 59.045,27.398 59.015,27.558 C58.985,27.718 58.92,27.878 58.82,28.038 C58.64,28.278 58.435,28.378 58.205,28.338 C57.975,28.298 57.79,28.148 57.65,27.888 C57.25,26.688 56.95,25.473 56.75,24.243 C56.55,23.013 56.425,21.778 56.375,20.538 C56.325,19.298 56.33,18.048 56.39,16.788 C56.45,15.528 56.53,14.268 56.63,13.008 C56.43,13.008 56.235,12.998 56.045,12.978 C55.855,12.958 55.68,12.918 55.52,12.858 C55.34,12.758 55.2,12.618 55.1,12.438 C55.04,12.258 55.02,12.108 55.04,11.988 C55.06,11.868 55.12,11.728 55.22,11.568 Z" id="Path" fill="#749947"></path>
            <path d="M87.29,12.348 C87.09,12.328 86.94,12.263 86.84,12.153 C86.74,12.043 86.69,11.918 86.69,11.778 C86.39,11.718 86.04,11.713 85.64,11.763 C85.24,11.813 84.83,11.888 84.41,11.988 C83.99,12.088 83.595,12.198 83.225,12.318 C82.855,12.438 82.57,12.548 82.37,12.648 C81.89,12.868 81.325,13.238 80.675,13.758 C80.025,14.278 79.4,14.873 78.8,15.543 C78.2,16.213 77.68,16.933 77.24,17.703 C76.8,18.473 76.54,19.223 76.46,19.953 C76.38,20.683 76.53,21.353 76.91,21.963 C77.29,22.573 78.01,23.068 79.07,23.448 C79.51,23.608 79.96,23.723 80.42,23.793 C80.88,23.863 81.34,23.918 81.8,23.958 C82.86,24.018 83.91,23.953 84.95,23.763 C85.99,23.573 87,23.288 87.98,22.908 C88.32,22.768 88.68,22.608 89.06,22.428 C89.44,22.248 89.81,22.048 90.17,21.828 C90.53,21.608 90.87,21.358 91.19,21.078 C91.51,20.798 91.77,20.498 91.97,20.178 C92.03,20.098 92.07,19.953 92.09,19.743 C92.11,19.533 92.12,19.313 92.12,19.083 C92.12,18.853 92.12,18.633 92.12,18.423 C92.12,18.213 92.13,18.058 92.15,17.958 C91.95,17.738 91.77,17.498 91.61,17.238 C91.45,16.978 91.23,16.768 90.95,16.608 C89.79,15.948 88.615,15.458 87.425,15.138 C86.235,14.818 84.98,14.638 83.66,14.598 C83.56,14.598 83.49,14.588 83.45,14.568 C83.29,14.508 83.18,14.418 83.12,14.298 C83.12,14.258 83.11,14.228 83.09,14.208 C83.09,14.168 83.085,14.138 83.075,14.118 C83.065,14.098 83.06,14.068 83.06,14.028 C83.06,13.748 83.2,13.558 83.48,13.458 C83.52,13.458 83.56,13.453 83.6,13.443 C83.64,13.433 83.68,13.428 83.72,13.428 L83.75,13.428 C84.39,13.388 85.04,13.373 85.7,13.383 C86.36,13.393 86.99,13.508 87.59,13.728 C88.29,13.948 88.995,14.168 89.705,14.388 C90.415,14.608 91.12,14.838 91.82,15.078 C92.3,15.238 92.725,15.563 93.095,16.053 C93.465,16.543 93.75,17.093 93.95,17.703 C94.15,18.313 94.24,18.933 94.22,19.563 C94.2,20.193 94.06,20.738 93.8,21.198 C93.58,21.598 93.29,21.958 92.93,22.278 C92.57,22.598 92.22,22.928 91.88,23.268 C91.46,23.668 90.98,23.993 90.44,24.243 C89.9,24.493 89.36,24.728 88.82,24.948 C88.12,25.248 87.295,25.528 86.345,25.788 C85.395,26.048 84.415,26.228 83.405,26.328 C82.395,26.428 81.415,26.423 80.465,26.313 C79.515,26.203 78.69,25.928 77.99,25.488 C77.59,25.228 77.155,24.988 76.685,24.768 C76.215,24.548 75.85,24.238 75.59,23.838 C75.39,23.538 75.185,23.233 74.975,22.923 C74.765,22.613 74.61,22.288 74.51,21.948 C74.29,21.248 74.24,20.523 74.36,19.773 C74.48,19.023 74.72,18.293 75.08,17.583 C75.44,16.873 75.89,16.183 76.43,15.513 C76.97,14.843 77.54,14.233 78.14,13.683 C78.74,13.133 79.35,12.648 79.97,12.228 C80.59,11.808 81.16,11.478 81.68,11.238 C82.04,11.078 82.515,10.918 83.105,10.758 C83.695,10.598 84.3,10.488 84.92,10.428 C85.54,10.368 86.135,10.388 86.705,10.488 C87.275,10.588 87.74,10.798 88.1,11.118 C88.28,11.318 88.31,11.568 88.19,11.868 C88.09,12.068 87.97,12.188 87.83,12.228 C87.69,12.268 87.51,12.308 87.29,12.348 Z" id="Path" fill="#749947"></path>
            <path d="M95.6,22.338 C95.46,20.898 95.45,19.463 95.57,18.033 C95.69,16.603 95.8,15.168 95.9,13.728 C95.7,13.648 95.58,13.503 95.54,13.293 C95.5,13.083 95.59,12.878 95.81,12.678 C95.83,12.658 95.85,12.643 95.87,12.633 C95.89,12.623 95.91,12.598 95.93,12.558 C95.91,12.278 95.89,12.003 95.87,11.733 C95.85,11.463 95.82,11.198 95.78,10.938 C95.68,10.838 95.63,10.698 95.63,10.518 L95.63,10.188 C95.71,9.868 95.885,9.678 96.155,9.618 C96.425,9.558 96.65,9.668 96.83,9.948 C96.97,10.168 97.07,10.413 97.13,10.683 C97.19,10.953 97.25,11.198 97.31,11.418 C97.31,11.458 97.33,11.538 97.37,11.658 C97.63,11.518 97.885,11.398 98.135,11.298 C98.385,11.198 98.62,11.098 98.84,10.998 C99.38,10.778 99.92,10.568 100.46,10.368 C101,10.168 101.56,10.018 102.14,9.918 C103.3,9.738 104.235,9.848 104.945,10.248 C105.655,10.648 106.21,11.228 106.61,11.988 C106.95,11.788 107.3,11.613 107.66,11.463 C108.02,11.313 108.39,11.158 108.77,10.998 C109.17,10.838 109.57,10.678 109.97,10.518 C110.37,10.358 110.78,10.238 111.2,10.158 C112.08,9.998 112.805,9.993 113.375,10.143 C113.945,10.293 114.405,10.563 114.755,10.953 C115.105,11.343 115.355,11.848 115.505,12.468 C115.655,13.088 115.76,13.788 115.82,14.568 C115.96,16.568 115.995,18.583 115.925,20.613 C115.855,22.643 115.74,24.668 115.58,26.688 C115.58,26.928 115.505,27.113 115.355,27.243 C115.205,27.373 115.01,27.418 114.77,27.378 C114.65,27.318 114.525,27.258 114.395,27.198 C114.265,27.138 114.14,27.068 114.02,26.988 C113.8,26.768 113.725,26.548 113.795,26.328 C113.865,26.108 114.01,25.978 114.23,25.938 L113.63,17.028 C113.63,16.988 113.62,16.738 113.6,16.278 C113.58,15.818 113.55,15.308 113.51,14.748 C113.47,14.188 113.415,13.673 113.345,13.203 C113.275,12.733 113.2,12.468 113.12,12.408 C112.8,12.208 112.505,12.128 112.235,12.168 C111.965,12.208 111.66,12.208 111.32,12.168 L111.29,12.168 C110.59,12.268 109.88,12.408 109.16,12.588 C108.44,12.768 107.75,12.998 107.09,13.278 C107.29,13.978 107.42,14.728 107.48,15.528 C107.54,16.328 107.565,17.123 107.555,17.913 C107.545,18.703 107.5,19.458 107.42,20.178 C107.34,20.898 107.27,21.538 107.21,22.098 C107.21,22.078 107.215,22.013 107.225,21.903 C107.235,21.793 107.245,21.688 107.255,21.588 C107.265,21.488 107.27,21.408 107.27,21.348 C107.27,21.288 107.27,21.288 107.27,21.348 C107.17,22.108 107.115,22.878 107.105,23.658 C107.095,24.438 107.11,25.208 107.15,25.968 C107.19,26.088 107.21,26.198 107.21,26.298 C107.21,26.498 107.2,26.648 107.18,26.748 C107.08,27.068 106.895,27.233 106.625,27.243 C106.355,27.253 106.14,27.108 105.98,26.808 C105.96,26.788 105.95,26.768 105.95,26.748 C105.95,26.728 105.94,26.698 105.92,26.658 L105.92,26.628 C105.74,25.748 105.62,24.868 105.56,23.988 C105.5,23.108 105.46,22.223 105.44,21.333 C105.42,20.443 105.405,19.558 105.395,18.678 C105.385,17.798 105.33,16.908 105.23,16.008 C105.19,15.748 105.155,15.438 105.125,15.078 C105.095,14.718 105.04,14.358 104.96,13.998 C104.88,13.638 104.77,13.298 104.63,12.978 C104.49,12.658 104.31,12.408 104.09,12.228 C103.83,12.028 103.45,11.923 102.95,11.913 C102.45,11.903 101.92,11.948 101.36,12.048 C100.8,12.148 100.265,12.273 99.755,12.423 C99.245,12.573 98.86,12.698 98.6,12.798 L97.7,13.158 C97.84,13.878 97.92,14.558 97.94,15.198 C97.96,15.838 97.955,16.478 97.925,17.118 C97.895,17.758 97.85,18.428 97.79,19.128 C97.73,19.828 97.68,20.598 97.64,21.438 C97.6,22.278 97.63,23.118 97.73,23.958 C97.83,24.798 97.84,25.648 97.76,26.508 C97.76,26.708 97.7,26.863 97.58,26.973 C97.46,27.083 97.33,27.143 97.19,27.153 C97.05,27.163 96.92,27.118 96.8,27.018 C96.68,26.918 96.61,26.768 96.59,26.568 C96.55,26.288 96.485,26.003 96.395,25.713 C96.305,25.423 96.21,25.113 96.11,24.783 C96.01,24.453 95.91,24.088 95.81,23.688 C95.71,23.288 95.64,22.838 95.6,22.338 Z" id="Path" fill="#749947"></path>
            <path d="M122.9,19.158 C122.56,19.038 122.23,18.883 121.91,18.693 C121.59,18.503 121.26,18.328 120.92,18.168 L120.56,18.588 C119.78,19.548 119.385,20.338 119.375,20.958 C119.365,21.578 119.6,22.083 120.08,22.473 C120.56,22.863 121.2,23.173 122,23.403 C122.8,23.633 123.61,23.818 124.43,23.958 C125.13,24.078 125.825,24.173 126.515,24.243 C127.205,24.313 127.9,24.368 128.6,24.408 C129.3,24.448 129.995,24.473 130.685,24.483 C131.375,24.493 132.07,24.488 132.77,24.468 C133.27,24.448 133.83,24.413 134.45,24.363 C135.07,24.313 135.695,24.248 136.325,24.168 C136.955,24.088 137.57,23.983 138.17,23.853 C138.77,23.723 139.32,23.568 139.82,23.388 C140.16,23.268 140.47,23.108 140.75,22.908 C141.03,22.708 141.31,22.518 141.59,22.338 C141.77,22.278 141.925,22.268 142.055,22.308 C142.185,22.348 142.29,22.418 142.37,22.518 C142.45,22.618 142.49,22.743 142.49,22.893 C142.49,23.043 142.43,23.188 142.31,23.328 C141.97,23.548 141.65,23.788 141.35,24.048 C141.05,24.308 140.7,24.498 140.3,24.618 C138.36,25.198 136.425,25.633 134.495,25.923 C132.565,26.213 130.57,26.338 128.51,26.298 C127.75,26.278 126.995,26.258 126.245,26.238 C125.495,26.218 124.75,26.128 124.01,25.968 C123.55,25.868 123.025,25.758 122.435,25.638 C121.845,25.518 121.255,25.363 120.665,25.173 C120.075,24.983 119.52,24.743 119,24.453 C118.48,24.163 118.06,23.798 117.74,23.358 C117.5,23.018 117.355,22.653 117.305,22.263 C117.255,21.873 117.18,21.478 117.08,21.078 C117.04,20.958 117.02,20.833 117.02,20.703 C117.02,20.573 117.05,20.458 117.11,20.358 C117.37,19.798 117.595,19.223 117.785,18.633 C117.975,18.043 118.29,17.538 118.73,17.118 L118.82,17.028 C118.78,16.868 118.81,16.703 118.91,16.533 C119.01,16.363 119.19,16.278 119.45,16.278 L119.6,16.278 C120.38,15.538 121.175,14.893 121.985,14.343 C122.795,13.793 123.79,13.378 124.97,13.098 C125.47,12.978 126.005,12.848 126.575,12.708 C127.145,12.568 127.725,12.443 128.315,12.333 C128.905,12.223 129.495,12.153 130.085,12.123 C130.675,12.093 131.23,12.128 131.75,12.228 C132.13,12.288 132.555,12.363 133.025,12.453 C133.495,12.543 133.965,12.668 134.435,12.828 C134.905,12.988 135.33,13.203 135.71,13.473 C136.09,13.743 136.38,14.088 136.58,14.508 C136.74,14.828 136.805,15.168 136.775,15.528 C136.745,15.888 136.73,16.248 136.73,16.608 C136.75,16.988 136.635,17.328 136.385,17.628 C136.135,17.928 135.87,18.198 135.59,18.438 C135.17,18.798 134.625,19.078 133.955,19.278 C133.285,19.478 132.585,19.623 131.855,19.713 C131.125,19.803 130.4,19.853 129.68,19.863 C128.96,19.873 128.34,19.868 127.82,19.848 C127.02,19.808 126.19,19.748 125.33,19.668 C124.47,19.588 123.66,19.418 122.9,19.158 Z M122.03,17.208 C122.27,17.348 122.505,17.473 122.735,17.583 C122.965,17.693 123.18,17.778 123.38,17.838 C124,18.018 124.665,18.143 125.375,18.213 C126.085,18.283 126.8,18.313 127.52,18.303 C128.24,18.293 128.95,18.248 129.65,18.168 C130.35,18.088 131.02,17.988 131.66,17.868 C131.82,17.848 132.06,17.803 132.38,17.733 C132.7,17.663 133.02,17.568 133.34,17.448 C133.66,17.328 133.945,17.188 134.195,17.028 C134.445,16.868 134.6,16.668 134.66,16.428 C134.7,16.268 134.705,16.113 134.675,15.963 C134.645,15.813 134.62,15.658 134.6,15.498 C134.46,15.398 134.325,15.278 134.195,15.138 C134.065,14.998 133.91,14.898 133.73,14.838 C132.87,14.518 131.955,14.348 130.985,14.328 C130.015,14.308 129.045,14.393 128.075,14.583 C127.105,14.773 126.165,15.053 125.255,15.423 C124.345,15.793 123.52,16.218 122.78,16.698 L122.03,17.208 Z" id="Shape" fill="#749947"></path>
            <path d="M140.18,10.308 C140.2,10.128 140.27,9.988 140.39,9.888 C140.51,9.788 140.635,9.738 140.765,9.738 C140.895,9.738 141.015,9.778 141.125,9.858 C141.235,9.938 141.31,10.068 141.35,10.248 C141.39,10.768 141.445,11.293 141.515,11.823 C141.585,12.353 141.66,12.878 141.74,13.398 C142.44,12.538 143.295,11.833 144.305,11.283 C145.315,10.733 146.37,10.438 147.47,10.398 C147.83,10.398 148.25,10.488 148.73,10.668 C149.21,10.848 149.66,11.093 150.08,11.403 C150.5,11.713 150.845,12.068 151.115,12.468 C151.385,12.868 151.5,13.278 151.46,13.698 C151.46,13.898 151.4,14.053 151.28,14.163 C151.16,14.273 151.03,14.333 150.89,14.343 C150.75,14.353 150.62,14.308 150.5,14.208 C150.38,14.108 150.31,13.958 150.29,13.758 L150.14,13.608 C149.68,13.288 149.285,13.048 148.955,12.888 C148.625,12.728 148.295,12.633 147.965,12.603 C147.635,12.573 147.29,12.613 146.93,12.723 C146.57,12.833 146.14,12.988 145.64,13.188 C145.48,13.248 145.29,13.338 145.07,13.458 C144.85,13.578 144.64,13.693 144.44,13.803 C144.24,13.913 144.07,14.003 143.93,14.073 C143.79,14.143 143.72,14.178 143.72,14.178 C143.46,14.338 143.17,14.508 142.85,14.688 C142.53,14.868 142.25,15.068 142.01,15.288 C142.13,16.188 142.245,17.088 142.355,17.988 C142.465,18.888 142.56,19.788 142.64,20.688 C142.74,21.708 142.765,22.728 142.715,23.748 C142.665,24.768 142.59,25.788 142.49,26.808 C142.49,27.008 142.43,27.163 142.31,27.273 C142.19,27.383 142.06,27.443 141.92,27.453 C141.78,27.463 141.65,27.418 141.53,27.318 C141.41,27.218 141.34,27.068 141.32,26.868 C141.14,25.488 140.955,24.108 140.765,22.728 C140.575,21.348 140.41,19.973 140.27,18.603 C140.13,17.233 140.045,15.858 140.015,14.478 C139.985,13.098 140.04,11.708 140.18,10.308 Z" id="Path" fill="#749947"></path>
            <path d="M165.32,1.908 C165.38,2.108 165.37,2.278 165.29,2.418 C165.21,2.558 165.105,2.648 164.975,2.688 C164.845,2.728 164.705,2.723 164.555,2.673 C164.405,2.623 164.28,2.508 164.18,2.328 C164.12,2.108 163.945,1.928 163.655,1.788 C163.365,1.648 163.045,1.553 162.695,1.503 C162.345,1.453 162,1.443 161.66,1.473 C161.32,1.503 161.07,1.568 160.91,1.668 C160.41,1.948 159.9,2.208 159.38,2.448 C158.86,2.688 158.4,3.008 158,3.408 C157.3,4.128 156.75,4.978 156.35,5.958 C155.95,6.938 155.67,7.993 155.51,9.123 C155.35,10.253 155.295,11.423 155.345,12.633 C155.395,13.843 155.52,15.028 155.72,16.188 C155.92,17.348 156.18,18.453 156.5,19.503 C156.82,20.553 157.17,21.488 157.55,22.308 C157.71,22.648 157.895,23.003 158.105,23.373 C158.315,23.743 158.555,24.103 158.825,24.453 C159.095,24.803 159.39,25.118 159.71,25.398 C160.03,25.678 160.39,25.888 160.79,26.028 C161.63,26.328 162.39,26.408 163.07,26.268 C163.75,26.128 164.355,25.843 164.885,25.413 C165.415,24.983 165.87,24.448 166.25,23.808 C166.63,23.168 166.95,22.483 167.21,21.753 C167.47,21.023 167.675,20.293 167.825,19.563 C167.975,18.833 168.07,18.168 168.11,17.568 C168.15,17.088 168.175,16.668 168.185,16.308 C168.195,15.948 168.185,15.603 168.155,15.273 C168.125,14.943 168.085,14.608 168.035,14.268 C167.985,13.928 167.92,13.528 167.84,13.068 C167.66,12.068 167.4,11.078 167.06,10.098 C166.72,9.118 166.36,8.158 165.98,7.218 C165.9,7.038 165.795,6.828 165.665,6.588 C165.535,6.348 165.4,6.118 165.26,5.898 C165.1,5.658 164.93,5.398 164.75,5.118 C164.63,4.978 164.56,4.838 164.54,4.698 C164.52,4.558 164.54,4.433 164.6,4.323 C164.66,4.213 164.755,4.133 164.885,4.083 C165.015,4.033 165.17,4.028 165.35,4.068 C165.69,4.228 166.03,4.573 166.37,5.103 C166.71,5.633 167.025,6.208 167.315,6.828 C167.605,7.448 167.86,8.053 168.08,8.643 C168.3,9.233 168.46,9.678 168.56,9.978 C168.92,10.998 169.235,12.073 169.505,13.203 C169.775,14.333 169.955,15.478 170.045,16.638 C170.135,17.798 170.095,18.943 169.925,20.073 C169.755,21.203 169.42,22.278 168.92,23.298 C168.48,24.178 167.98,24.998 167.42,25.758 C166.86,26.518 166.22,27.148 165.5,27.648 C164.78,28.148 163.97,28.468 163.07,28.608 C162.17,28.748 161.17,28.648 160.07,28.308 C159.51,28.128 158.985,27.853 158.495,27.483 C158.005,27.113 157.555,26.688 157.145,26.208 C156.735,25.728 156.38,25.223 156.08,24.693 C155.78,24.163 155.54,23.648 155.36,23.148 C154.9,21.828 154.535,20.653 154.265,19.623 C153.995,18.593 153.79,17.588 153.65,16.608 C153.51,15.628 153.425,14.618 153.395,13.578 C153.365,12.538 153.37,11.358 153.41,10.038 C153.45,9.278 153.595,8.543 153.845,7.833 C154.095,7.123 154.32,6.408 154.52,5.688 C154.72,5.048 155.045,4.463 155.495,3.933 C155.945,3.403 156.37,2.858 156.77,2.298 C156.97,2.018 157.295,1.738 157.745,1.458 C158.195,1.178 158.715,0.933 159.305,0.723 C159.895,0.513 160.515,0.353 161.165,0.243 C161.815,0.133 162.425,0.108 162.995,0.168 C163.565,0.228 164.06,0.398 164.48,0.678 C164.9,0.958 165.18,1.368 165.32,1.908 Z" id="Path" fill="#749947"></path>
        </g>
    </g>
</svg>